<?xml version="1.0" encoding="UTF-8" standalone="no"?>
<svg
   height="16"
   viewBox="0 0 16 16"
   width="16"
   version="1.1"
   id="svg4"
   sodipodi:docname="locate.svg"
   inkscape:version="1.3.2 (091e20e, 2023-11-25, custom)"
   xmlns:inkscape="http://www.inkscape.org/namespaces/inkscape"
   xmlns:sodipodi="http://sodipodi.sourceforge.net/DTD/sodipodi-0.dtd"
   xmlns="http://www.w3.org/2000/svg"
   xmlns:svg="http://www.w3.org/2000/svg">
  <defs
     id="defs8" />
  <sodipodi:namedview
     id="namedview6"
     pagecolor="#ffffff"
     bordercolor="#666666"
     borderopacity="1.0"
     inkscape:pageshadow="2"
     inkscape:pageopacity="0.0"
     inkscape:pagecheckerboard="0"
     showgrid="false"
     inkscape:zoom="51.5"
     inkscape:cx="8.0097087"
     inkscape:cy="7.9902913"
     inkscape:window-width="2560"
     inkscape:window-height="1009"
     inkscape:window-x="-8"
     inkscape:window-y="-8"
     inkscape:window-maximized="1"
     inkscape:current-layer="svg4"
     inkscape:showpageshadow="2"
     inkscape:deskcolor="#d1d1d1" />
  <path
     d="m3 2c-1.1046 0-2 .8954-2 2v9c0 1.1046.89543 2 2 2h9c1.1046 0 1.8184-.91043 2-2l1-6c.003977-.18354-.042648-.3412-.13477-.5-.17849-.30916-.50825-.49972-.86523-.5h-8c-.35698.0002824-.68674.19084-.86523.5-.092118.1588-.13874.3399-.13477.52344l-1 5.9766c-.091144.54473-.44772 1-1 1s-1-.4477-1-1v-9c0-.5523.44772-1 1-1h2c.55228 0 1 .4477 1 1a1 1 0 0 0 .29297.70703 1 1 0 0 0 .70703.29297h4 1a1 1 0 0 0 -.29297-.70703 1 1 0 0 0 -.70703-.29297h-4c0-1.1046-.89543-2-2-2h-2z"
     fill="#e0e0e0"
     id="path2" />
  <g
     inkscape:groupmode="layer"
     id="layer1"
     inkscape:label="MagnifyGlass">
    <path
       d="m 10.597521,8.1607273 a 2.4368079,2.4368079 0 0 0 -2.4368083,2.4368077 2.4368079,2.4368079 0 0 0 2.4368083,2.436808 2.4368079,2.4368079 0 0 0 1.342145,-0.4055 l 2.103647,2.103648 0.689178,-0.689178 -2.103648,-2.103647 a 2.4368079,2.4368079 0 0 0 0.4055,-1.342145 2.4368079,2.4368079 0 0 0 -2.436808,-2.4368083 z m 0,0.9747231 A 1.4620847,1.4620847 0 0 1 12.059605,10.597535 1.4620847,1.4620847 0 0 1 10.597521,12.05962 1.4620847,1.4620847 0 0 1 9.1354358,10.597535 1.4620847,1.4620847 0 0 1 10.597521,9.1354504 Z"
       fill="#e0e0e0"
       fill-opacity="0.99608"
       id="path2-8"
       style="stroke-width:0.487362;fill:#4d4d4d" />
  </g>
  <path
     style="fill:#ffdd55;stroke-width:0.0194175"
     d="M 2.6689243,14.962053 C 2.2452663,14.884672 1.9213304,14.718022 1.614736,14.419719 1.3467641,14.158994 1.1745329,13.86617 1.0709279,13.495146 L 1.0194175,13.31068 1.0136722,8.592233 C 1.0094832,5.1518781 1.0138898,3.8318337 1.0299404,3.7189059 1.1604445,2.8007122 1.9052126,2.10241 2.8424986,2.0194327 c 0.2799987,-0.024788 2.0350041,-0.024788 2.3150028,0 0.807993,0.071531 1.4692996,0.5875699 1.7293906,1.3494993 0.053036,0.1553676 0.1033993,0.4214239 0.1033993,0.5462329 V 4 l 1.9757281,1.474e-4 c 1.1029626,8.23e-5 2.0456686,0.00819 2.1340556,0.018354 0.08708,0.010014 0.208108,0.039199 0.26895,0.064857 0.329443,0.1389264 0.580834,0.464277 0.606993,0.7855737 l 0.0099,0.1213593 H 9.4339225 c -2.7927423,0 -2.648398,0.00572 -2.8855128,-0.1142482 C 6.3215775,4.7612823 6.1336324,4.5404798 6.0601054,4.3023715 6.0400806,4.2375235 6.0177274,4.1058252 6.0104317,4.0097087 5.9864555,3.6938403 5.9097045,3.5022024 5.7329656,3.3169101 5.6072781,3.1851399 5.4877412,3.1044107 5.3285295,3.0437743 5.2137142,3.0000465 5.2123041,3 4,3 2.787696,3 2.7862858,3.0000465 2.6714704,3.0437743 2.3583705,3.1630196 2.1245532,3.4124954 2.0312917,3.7268253 c -0.0284,0.095721 -0.03127,0.5361864 -0.031061,4.7669902 1.966e-4,3.9783815 0.0043,4.6768015 0.027976,4.7657685 0.091052,0.342095 0.3701141,0.621158 0.7122095,0.712209 0.1496501,0.03983 0.3964388,0.0359 0.5393712,-0.0086 0.3147829,-0.09797 0.5629738,-0.378825 0.6795996,-0.769037 0.043359,-0.145073 1.0503219,-6.1325896 1.0503219,-6.2453342 0,-0.036792 0.013176,-0.11748 0.029279,-0.1793057 0.090335,-0.346819 0.3396456,-0.6101468 0.6786522,-0.7168077 l 0.1367288,-0.043 H 10 14.145631 l 0.136729,0.043019 c 0.334291,0.1051773 0.590876,0.3740644 0.681584,0.7142629 0.01424,0.053398 0.02599,0.1301142 0.02612,0.1704804 2.53e-4,0.080707 -1.023084,6.2413 -1.041765,6.271525 -0.0064,0.01032 -0.301858,-0.271415 -0.656629,-0.626067 l -0.645038,-0.644822 0.08482,-0.148665 c 0.42277,-0.740961 0.411205,-1.691674 -0.02964,-2.4370177 C 12.259501,8.604615 11.467871,8.1557363 10.5908,8.1554179 10.105371,8.1552416 9.6410111,8.2979507 9.2135922,8.5786672 9.0305755,8.6988674 8.6908202,9.0420066 8.5657023,9.2330097 7.6396301,10.646739 8.3562703,12.540581 9.9768359,12.962166 10.585901,13.120613 11.257117,13.03518 11.78943,12.731459 l 0.148653,-0.08482 0.781687,0.781865 0.781687,0.781866 -0.08108,0.09684 c -0.102265,0.122145 -0.288223,0.294833 -0.401164,0.372539 -0.130899,0.09006 -0.388649,0.207714 -0.562903,0.256944 l -0.15534,0.04389 -4.7475729,0.0032 c -3.7995719,0.0026 -4.7749094,-0.0018 -4.8844738,-0.02177 z"
     id="path1" />
</svg>
