<?xml version="1.0" encoding="UTF-8" standalone="no"?>
<svg
   height="78px"
   id="Layer_1"
   style="enable-background:new 0 0 78 78;"
   version="1.1"
   viewBox="0 0 78 78"
   width="78px"
   xml:space="preserve"
   sodipodi:docname="news.svg"
   inkscape:version="1.2.1 (9c6d41e410, 2022-07-14)"
   xmlns:inkscape="http://www.inkscape.org/namespaces/inkscape"
   xmlns:sodipodi="http://sodipodi.sourceforge.net/DTD/sodipodi-0.dtd"
   xmlns="http://www.w3.org/2000/svg"
   xmlns:svg="http://www.w3.org/2000/svg"><defs
     id="defs207" /><sodipodi:namedview
     id="namedview205"
     pagecolor="#ffffff"
     bordercolor="#000000"
     borderopacity="0.25"
     inkscape:showpageshadow="2"
     inkscape:pageopacity="0.0"
     inkscape:pagecheckerboard="0"
     inkscape:deskcolor="#d1d1d1"
     showgrid="false"
     inkscape:zoom="4"
     inkscape:cx="39.5"
     inkscape:cy="39.25"
     inkscape:window-width="1920"
     inkscape:window-height="1012"
     inkscape:window-x="0"
     inkscape:window-y="0"
     inkscape:window-maximized="1"
     inkscape:current-layer="Layer_1" /><g
     id="g202"
     transform="matrix(-1,0,0,1,78,0)"><path
       d="M 12,3.005 V 21.001 H 0 v 44.494 c 0,5.247 4.253,9.5 9.5,9.5 h 59 c 5.25,0 9.5,-4.25 9.5,-9.5 V 3.005 Z m 60,62.49 c 0,1.93 -1.57,3.5 -3.5,3.5 h -59 c -1.93,0 -3.5,-1.57 -3.5,-3.5 V 27.001 h 6 v 29.994 c 0,1.66 1.34,3 3,3 1.66,0 3,-1.34 3,-3 V 9.005 h 54 z"
       style="fill:#e0e0e0"
       id="path182" /><rect
       height="11.997"
       style="fill:#333f4f"
       width="42"
       x="24"
       y="14.995"
       id="rect184" /><rect
       height="3"
       style="fill:#333f4f"
       width="18"
       x="24"
       y="32.998001"
       id="rect186" /><rect
       height="3"
       style="fill:#333f4f"
       width="18"
       x="48"
       y="32.998001"
       id="rect188" /><rect
       height="3"
       style="fill:#333f4f"
       width="18"
       x="24"
       y="40.997002"
       id="rect190" /><rect
       height="3"
       style="fill:#333f4f"
       width="18"
       x="48"
       y="40.997002"
       id="rect192" /><rect
       height="3"
       style="fill:#333f4f"
       width="18"
       x="24"
       y="48.998001"
       id="rect194" /><rect
       height="3"
       style="fill:#333f4f"
       width="18"
       x="48"
       y="48.998001"
       id="rect196" /><rect
       height="3"
       style="fill:#333f4f"
       width="18"
       x="24"
       y="56.998001"
       id="rect198" /><rect
       height="3"
       style="fill:#333f4f"
       width="18"
       x="48"
       y="56.998001"
       id="rect200" /></g><path
     style="fill:#e0e0e0"
     d="M 7.5030949,74.834408 C 3.702485,73.981435 0.84223975,71.065978 0.12418898,67.313065 -0.03812245,66.46474 -0.06581662,61.697824 -0.06581662,34.607963 V 2.8959314 H 32.974127 66.014071 v 9.0168776 9.016877 h 6.059005 6.059004 L 78.092,43.932595 c -0.03816,21.899982 -0.05173,23.043934 -0.283123,23.858525 -0.591572,2.082576 -1.722802,3.857499 -3.223293,5.057418 -1.133435,0.906388 -1.82226,1.293262 -3.108735,1.745999 l -1.053066,0.370595 -31.065445,0.02327 C 13.732179,75.007589 8.1546074,74.980631 7.5030949,74.834408 Z M 69.391103,68.779667 c 0.933383,-0.277185 1.627553,-0.828615 2.085748,-1.656863 l 0.3949,-0.713833 0.0346,-19.646261 0.0346,-19.646262 H 68.97751 66.014071 V 42.43669 57.756931 l -0.367812,0.704074 c -0.654874,1.253572 -2.269732,1.886661 -3.650258,1.431047 C 61.346808,59.677797 60.503172,58.90345 60.204525,58.24771 59.975345,57.744499 59.964596,56.644047 59.961833,33.401935 L 59.958942,9.0826938 H 33.039944 6.1209458 l 0.00129,28.5973222 0.00129,28.597322 0.3111485,0.658166 c 0.2817198,0.595917 0.6267635,0.994729 1.3061326,1.509672 0.6829151,0.517629 0.3787493,0.512548 31.2316581,0.52176 25.99865,0.0078 29.841576,-0.0159 30.418645,-0.187269 z"
     id="path713" /><path
     style="fill:#e0e0e0;stroke-width:0.00822708"
     d="M 9.0621261,74.98918 C 8.7819752,74.976062 8.4925928,74.949658 8.2101447,74.911442 8.1284333,74.900387 7.982197,74.885685 7.8851752,74.878771 7.6365454,74.861055 7.5432368,74.84755 7.3508939,74.801445 5.5025985,74.358399 3.803919,73.385229 2.54716,72.049393 2.2662688,71.750828 2.0799357,71.530207 1.8481977,71.221812 1.2383688,70.410256 0.77981988,69.539265 0.45143553,68.568732 0.40236969,68.423719 0.34142373,68.22832 0.34142373,68.216023 c 0,-0.0029 1.59959747,-0.0053 3.55466097,-0.0053 h 3.554661 l 0.083764,0.06841 c 0.3100718,0.253239 0.4300491,0.327555 0.6135347,0.380035 0.5943272,0.169987 2.1894166,0.231301 6.9568706,0.267415 1.482447,0.01123 5.138548,0.02438 6.809963,0.02449 l 1.347184,8.8e-5 v 3.023451 3.023451 l -7.032094,-0.0013 c -3.867653,-6.89e-4 -7.0931813,-0.0041 -7.167842,-0.0076 z"
     id="path715" /><path
     style="fill:#e0e0e0;stroke-width:0.03125"
     d="M 11.984375,58.484375 V 56.96875 H 21 30.015625 V 58.484375 60 H 21 11.984375 Z"
     id="path717" /><path
     style="fill:#e0e0e0;stroke-width:0.0625"
     d="M 11.983264,50.484375 12,48.96875 h 9 9 L 30.01674,50.484375 30.033472,52 H 21 11.966528 Z"
     id="path719" /><path
     style="fill:#e0e0e0;stroke-width:0.0625"
     d="M 11.96875,42.46875 V 40.9375 H 21 30.03125 V 42.46875 44 H 21 11.96875 Z"
     id="path721" /><path
     style="fill:#e0e0e0;stroke-width:0.0625"
     d="M 11.983264,34.484375 12,32.96875 h 9 9 L 30.01674,34.484375 30.033472,36 H 21 11.966528 Z"
     id="path723" /><path
     style="fill:#e0e0e0;stroke-width:0.0625"
     d="M 11.96875,20.96875 V 14.9375 H 33 54.03125 V 20.96875 27 H 33 11.96875 Z"
     id="path725" /><path
     style="fill:#e0e0e0;stroke-width:0.0625"
     d="M 35.983264,34.484375 36,32.96875 h 9 9 L 54.01674,34.484375 54.033472,36 H 45 35.966528 Z"
     id="path727" /><path
     style="fill:#e0e0e0;stroke-width:0.0625"
     d="M 35.96875,42.46875 V 40.9375 H 45 54.03125 V 42.46875 44 H 45 35.96875 Z"
     id="path729" /><path
     style="fill:#e0e0e0;stroke-width:0.0625"
     d="M 35.983264,50.484375 36,48.96875 h 9 9 L 54.01674,50.484375 54.033472,52 H 45 35.966528 Z"
     id="path731" /><path
     style="fill:#e0e0e0;stroke-width:0.0625"
     d="M 35.983264,58.484375 36,56.96875 h 9 9 L 54.01674,58.484375 54.033472,60 H 45 35.966528 Z"
     id="path733" /><path
     style="fill:#e0e0e0;stroke-width:0.00390625"
     d="m 55.810547,73.501953 v -1.494141 h 5.585937 5.585938 v 1.494141 1.494141 h -5.585938 -5.585937 z"
     id="path735" /><path
     style="fill:#e0e0e0;stroke-width:0.00390625"
     d="m 63.263672,73.298828 v -1.697266 h 5.585937 5.585938 l -2.11e-4,0.684571 -2.11e-4,0.68457 -0.07081,0.05469 c -0.463849,0.358219 -0.807731,0.595525 -1.168562,0.806404 -0.264817,0.154765 -0.586832,0.315447 -0.900654,0.449416 -0.316107,0.134944 -0.478735,0.19553 -1.322441,0.492662 l -0.546875,0.192596 -0.632812,0.0025 c -0.348047,0.0014 -0.636328,0.0036 -0.640625,0.0049 -0.01016,0.0032 -0.210105,0.01336 -0.359375,0.01826 -0.07345,0.0024 -1.127182,0.0039 -2.823242,0.0039 l -2.706054,3.9e-5 z"
     id="path737" /><path
     style="fill:#e0e0e0;stroke-width:0.00390625"
     d="m 46.826172,74.240234 v -0.755859 h 5.585937 5.585938 v 0.755859 0.75586 h -5.585938 -5.585937 z"
     id="path739" /><path
     style="fill:#e0e0e0;stroke-width:0.00390625"
     d="M 42.224609,74.123047 V 73.25 h 5.585938 5.585937 v 0.873047 0.873047 h -5.585937 -5.585938 z"
     id="path741" /><path
     style="fill:#e0e0e0;stroke-width:0.00390625"
     d="m 34.490234,73.996094 v -1 h 5.585938 5.585937 v 1 1 h -5.585937 -5.585938 z"
     id="path743" /></svg>
