<?xml version="1.0" encoding="UTF-8" standalone="no"?>
<svg
   height="16"
   viewBox="0 0 16 16"
   width="16"
   version="1.1"
   id="svg4"
   sodipodi:docname="scan.svg"
   inkscape:version="1.1.1 (3bf5ae0d25, 2021-09-20)"
   xmlns:inkscape="http://www.inkscape.org/namespaces/inkscape"
   xmlns:sodipodi="http://sodipodi.sourceforge.net/DTD/sodipodi-0.dtd"
   xmlns="http://www.w3.org/2000/svg"
   xmlns:svg="http://www.w3.org/2000/svg">
  <defs
     id="defs8" />
  <sodipodi:namedview
     id="namedview6"
     pagecolor="#ffffff"
     bordercolor="#666666"
     borderopacity="1.0"
     inkscape:pageshadow="2"
     inkscape:pageopacity="0.0"
     inkscape:pagecheckerboard="0"
     showgrid="false"
     inkscape:zoom="51.5"
     inkscape:cx="7.9902913"
     inkscape:cy="7.9902913"
     inkscape:window-width="1920"
     inkscape:window-height="1009"
     inkscape:window-x="1912"
     inkscape:window-y="-8"
     inkscape:window-maximized="1"
     inkscape:current-layer="layer1" />
  <path
     d="m3 2c-1.1046 0-2 .8954-2 2v9c0 1.1046.89543 2 2 2h9c1.1046 0 1.8184-.91043 2-2l1-6c.003977-.18354-.042648-.3412-.13477-.5-.17849-.30916-.50825-.49972-.86523-.5h-8c-.35698.0002824-.68674.19084-.86523.5-.092118.1588-.13874.3399-.13477.52344l-1 5.9766c-.091144.54473-.44772 1-1 1s-1-.4477-1-1v-9c0-.5523.44772-1 1-1h2c.55228 0 1 .4477 1 1a1 1 0 0 0 .29297.70703 1 1 0 0 0 .70703.29297h4 1a1 1 0 0 0 -.29297-.70703 1 1 0 0 0 -.70703-.29297h-4c0-1.1046-.89543-2-2-2h-2z"
     fill="#e0e0e0"
     id="path2" />
  <g
     inkscape:groupmode="layer"
     id="layer1"
     inkscape:label="MagnifyGlass">
    <path
       d="m 10.597521,8.1607273 a 2.4368079,2.4368079 0 0 0 -2.4368083,2.4368077 2.4368079,2.4368079 0 0 0 2.4368083,2.436808 2.4368079,2.4368079 0 0 0 1.342145,-0.4055 l 2.103647,2.103648 0.689178,-0.689178 -2.103648,-2.103647 a 2.4368079,2.4368079 0 0 0 0.4055,-1.342145 2.4368079,2.4368079 0 0 0 -2.436808,-2.4368083 z m 0,0.9747231 A 1.4620847,1.4620847 0 0 1 12.059605,10.597535 1.4620847,1.4620847 0 0 1 10.597521,12.05962 1.4620847,1.4620847 0 0 1 9.1354358,10.597535 1.4620847,1.4620847 0 0 1 10.597521,9.1354504 Z"
       fill="#e0e0e0"
       fill-opacity="0.99608"
       id="path2-8"
       style="stroke-width:0.487362;fill:#4d4d4d" />
  </g>
</svg>
